<?xml version="1.0" standalone="no"?>
<!DOCTYPE svg PUBLIC "-//W3C//DTD SVG 20010904//EN"
 "http://www.w3.org/TR/2001/REC-SVG-20010904/DTD/svg10.dtd">
<svg version="1.0" xmlns="http://www.w3.org/2000/svg"
 width="1575.000000pt" height="1575.000000pt" viewBox="0 0 1575.000000 1575.000000"
 preserveAspectRatio="xMidYMid meet">
<metadata>
Created by potrace 1.14, written by Peter Selinger 2001-2017
</metadata>
<g transform="translate(0.000000,1575.000000) scale(0.100000,-0.100000)"
fill="#000000" stroke="none">
<path d="M7528 15745 c-2 -2 -61 -6 -133 -9 -71 -4 -143 -9 -160 -11 -16 -2
-61 -7 -100 -10 -114 -10 -204 -20 -275 -30 -19 -3 -51 -7 -70 -10 -46 -4
-105 -13 -205 -30 -30 -6 -147 -26 -170 -30 -11 -2 -78 -15 -150 -30 -71 -15
-139 -29 -150 -31 -11 -2 -38 -8 -60 -14 -22 -6 -47 -12 -55 -14 -80 -21 -255
-68 -293 -79 -26 -9 -50 -15 -53 -15 -7 -1 -142 -41 -189 -57 -22 -8 -107 -37
-190 -65 -82 -28 -159 -55 -170 -60 -11 -5 -56 -24 -100 -41 -44 -17 -91 -36
-105 -42 -14 -5 -30 -11 -35 -12 -6 -2 -32 -12 -58 -24 -26 -11 -68 -30 -94
-42 -151 -65 -493 -234 -618 -304 -57 -32 -176 -99 -220 -125 -120 -69 -406
-254 -545 -353 -144 -102 -350 -260 -350 -268 0 -5 -6 -9 -14 -9 -8 0 -16 -3
-18 -7 -1 -5 -39 -37 -83 -73 -44 -35 -85 -69 -91 -75 -6 -5 -34 -30 -63 -55
-180 -155 -323 -293 -596 -574 -11 -12 -54 -59 -95 -105 -41 -47 -82 -92 -90
-101 -27 -31 -112 -130 -158 -188 -192 -236 -532 -710 -532 -742 0 -5 -4 -10
-8 -10 -5 0 -15 -12 -23 -27 -16 -33 -54 -93 -69 -110 -5 -7 -10 -14 -10 -17
0 -2 -27 -50 -60 -105 -33 -56 -60 -104 -60 -106 0 -3 -12 -24 -27 -48 -45
-70 -252 -485 -246 -491 4 -3 1 -6 -5 -6 -7 0 -12 -8 -12 -18 0 -10 -4 -22 -9
-27 -8 -10 -135 -305 -161 -375 -7 -19 -19 -48 -26 -65 -13 -28 -82 -218 -88
-240 -2 -5 -6 -17 -9 -25 -21 -53 -147 -465 -162 -530 -2 -8 -15 -62 -30 -120
-15 -57 -28 -114 -29 -125 -1 -11 -5 -25 -8 -30 -3 -6 -9 -27 -12 -47 -3 -21
-11 -59 -17 -85 -6 -27 -13 -57 -15 -68 -5 -23 -41 -225 -48 -270 -3 -16 -7
-43 -10 -60 -14 -85 -18 -110 -31 -215 -3 -22 -7 -57 -10 -77 -6 -50 -19 -172
-29 -293 -28 -309 -28 -1031 -1 -1275 3 -22 7 -74 10 -115 3 -41 8 -88 10
-105 3 -16 7 -52 10 -80 5 -48 9 -81 20 -162 3 -21 7 -51 10 -68 2 -16 6 -43
9 -60 3 -16 8 -50 11 -75 3 -25 8 -53 11 -63 3 -10 7 -30 9 -45 2 -15 9 -49
15 -77 6 -27 12 -61 14 -75 2 -14 11 -57 19 -95 9 -39 18 -82 21 -95 24 -128
169 -639 220 -780 10 -25 18 -49 20 -55 7 -29 18 -62 26 -80 5 -11 30 -75 54
-142 25 -68 52 -136 61 -153 9 -16 13 -30 10 -30 -4 0 0 -12 9 -28 8 -15 21
-43 29 -62 72 -166 101 -228 180 -390 78 -161 197 -385 227 -430 6 -8 13 -22
17 -30 27 -59 273 -448 358 -565 28 -38 58 -82 68 -98 14 -22 128 -174 212
-282 35 -45 81 -100 98 -117 9 -10 17 -22 17 -28 0 -5 6 -13 12 -17 7 -4 38
-37 68 -73 257 -305 608 -656 889 -890 24 -19 55 -46 71 -60 34 -30 46 -40
135 -110 39 -30 72 -57 75 -60 3 -3 34 -27 70 -54 36 -26 76 -56 90 -66 115
-85 176 -128 318 -221 136 -90 212 -138 382 -240 172 -102 494 -269 705 -363
210 -94 199 -90 315 -136 245 -97 329 -128 495 -180 55 -18 107 -34 115 -37
18 -7 4 -3 160 -48 69 -20 136 -39 149 -41 14 -3 27 -7 31 -9 6 -4 255 -63
300 -71 14 -3 32 -7 40 -9 8 -2 31 -7 50 -11 45 -8 65 -12 65 -14 0 -1 14 -4
30 -6 17 -3 77 -13 135 -24 108 -19 211 -35 290 -45 25 -3 52 -8 60 -10 8 -2
45 -7 82 -10 37 -3 76 -8 88 -10 12 -2 58 -7 103 -10 45 -3 98 -7 117 -9 214
-27 1043 -27 1278 -1 26 3 72 7 102 10 30 2 78 8 105 11 28 4 66 8 85 9 38 3
74 8 230 30 58 9 112 18 120 20 8 3 33 7 55 10 66 8 98 14 143 25 24 6 47 8
53 5 5 -4 9 -2 9 3 0 5 6 9 13 9 22 1 91 13 132 24 22 6 49 13 60 15 11 2 31
6 45 9 58 12 334 86 445 119 66 20 127 38 135 40 8 3 15 5 15 6 0 1 7 3 15 5
34 7 299 100 349 121 29 13 59 24 66 24 7 0 39 12 71 26 108 47 276 118 284
120 22 4 435 207 565 277 110 59 157 86 335 194 85 52 164 99 175 106 11 7 22
14 25 18 3 3 29 20 58 37 30 18 59 37 65 43 7 5 70 50 141 99 125 89 286 208
296 220 3 3 23 19 45 36 38 28 47 34 79 61 8 7 56 47 108 90 85 70 142 120
205 181 13 12 26 22 28 22 1 0 32 27 67 61 211 203 358 352 478 488 36 40 72
81 81 90 9 9 44 50 78 91 34 41 72 86 84 100 13 14 38 45 57 70 18 25 38 50
45 55 6 6 22 26 35 45 13 19 27 37 30 40 3 3 18 23 35 45 16 22 32 42 35 45 3
3 13 16 22 30 9 14 38 54 63 90 173 242 364 547 517 825 29 51 222 441 251
505 30 68 56 130 56 135 0 3 7 18 15 33 15 25 116 276 116 285 0 3 8 22 17 43
9 22 17 41 18 44 3 14 38 116 44 125 3 6 7 19 8 29 2 11 8 25 14 33 6 7 9 13
5 13 -3 0 -1 12 5 27 39 102 173 576 203 723 3 14 9 42 15 62 5 20 6 39 3 42
-2 3 1 12 8 21 7 8 10 15 7 15 -3 0 -2 14 3 32 5 17 12 47 15 67 3 20 8 48 11
61 2 14 14 79 25 145 11 66 22 131 24 145 2 14 7 48 10 75 4 28 8 61 10 75 2
14 7 50 10 80 3 30 8 71 10 90 3 19 7 64 10 100 3 36 8 83 10 105 14 135 20
355 18 675 -1 347 -4 442 -18 590 -3 36 -8 92 -10 125 -3 33 -7 76 -10 95 -3
19 -8 60 -11 90 -6 58 -7 61 -18 150 -11 79 -13 94 -31 205 -16 97 -20 120
-30 168 -2 12 -6 33 -9 47 -2 14 -9 48 -15 75 -6 28 -13 61 -15 75 -2 14 -7
32 -10 40 -3 8 -8 31 -11 50 -4 30 -9 51 -29 130 -3 8 -9 35 -16 60 -17 70
-18 75 -20 75 -1 0 -3 9 -5 20 -2 11 -20 76 -40 145 -20 69 -38 132 -40 140
-2 8 -15 51 -30 95 -15 44 -28 85 -30 90 -2 9 -6 22 -22 63 -3 9 -7 19 -7 22
-2 10 -105 290 -116 315 -5 11 -21 49 -36 85 -31 78 -43 104 -81 190 -16 36
-38 85 -49 110 -29 70 -245 494 -254 500 -4 3 -11 16 -15 30 -4 14 -10 27 -14
30 -3 3 -19 30 -35 60 -16 30 -34 62 -41 70 -6 8 -31 49 -55 90 -61 105 -270
424 -281 428 -5 2 -9 8 -9 13 0 7 -153 224 -170 239 -3 3 -30 39 -62 80 -31
41 -65 85 -75 96 -10 12 -29 36 -43 54 -14 18 -32 40 -40 50 -8 10 -37 44 -65
76 -27 32 -64 74 -82 93 -17 20 -41 47 -53 61 -95 111 -381 400 -525 531 -38
35 -80 75 -94 88 -44 42 -312 265 -416 345 -55 43 -110 86 -122 96 -12 10 -32
24 -44 31 -13 7 -29 17 -36 23 -42 37 -112 86 -122 86 -6 0 -11 4 -11 8 0 4
-15 16 -32 27 -18 10 -37 23 -43 28 -20 17 -299 196 -334 214 -20 10 -38 21
-41 24 -6 8 -193 115 -305 176 -102 56 -503 253 -513 253 -4 0 -24 8 -45 19
-36 19 -117 52 -127 53 -3 0 -21 9 -40 19 -19 11 -38 19 -41 19 -4 0 -24 8
-45 17 -22 9 -41 17 -44 18 -7 1 -146 54 -185 70 -16 7 -82 29 -145 50 -63 21
-124 41 -135 46 -11 4 -36 12 -55 18 -19 6 -73 23 -120 37 -47 15 -94 28 -105
30 -11 2 -60 15 -110 29 -49 14 -128 35 -175 46 -47 11 -92 21 -100 23 -13 4
-255 53 -345 70 -16 4 -46 9 -65 11 -19 3 -46 8 -60 10 -45 9 -86 16 -121 20
-19 2 -43 6 -54 8 -11 3 -49 8 -85 11 -36 4 -76 9 -90 11 -51 9 -178 20 -445
42 -67 5 -832 13 -837 8z"/>
</g>
</svg>
